# xmcd CD database file
#
# Track frame offsets:
#	150
#	21264
#	36416
#	57621
#	79558
#	106712
#	126839
#	144714
#	164418
#	183358
#	202510
#	222487
#	242079
#	268951
#
# Disc length: 3831 seconds
#
# Revision: 25
# Processed by: cddbd v1.5.2PL0 Copyright (c) Steve Scherf et al.
# Submitted via: CDex 1.70beta3
#
DISCID=cb0ef50e
DTITLE=B'z - B'z The Best "Pleasure"
DYEAR=1998
DGENRE=Rock
TTITLE0=LOVE PHANTOM
TTITLE1=love me, I love you
TTITLE2=Easy Come, Easy Go!
TTITLE3=ZERO
TTITLE4=ALONE
TTITLE5=裸足の女神
TTITLE6=愛のままにわがままに 僕は君だけを傷つけない
TTITLE7=LADY NAVIGATION
TTITLE8=太陽のKomachi Angel
TTITLE9=BE THERE
TTITLE10=Don't Leave Me
TTITLE11=Bad Communication E.Style
TTITLE12=Calling
TTITLE13=さまよえる蒼い弾丸
EXTD=YEAR: 1998
EXTT0=
EXTT1=
EXTT2=
EXTT3=
EXTT4=
EXTT5=
EXTT6=
EXTT7=
EXTT8=
EXTT9=
EXTT10=
EXTT11=
EXTT12=
EXTT13=
PLAYORDER=
